<svg width="80" height="80" viewBox="0 0 80 80" fill="none" xmlns="http://www.w3.org/2000/svg">
<g clip-path="url(#clip0)">
<path fill-rule="evenodd" clip-rule="evenodd" d="M59.9522 63.7524C54.0632 69.6414 44.5182 69.6414 38.6312 63.7524C32.7442 57.8664 32.7412 48.3184 38.6312 42.4304C44.5192 36.5424 54.0662 36.5454 59.9502 42.4314C65.8412 48.3204 65.8412 57.8644 59.9522 63.7524Z" stroke="#00B4FF" stroke-width="2"/>
<path d="M49.4385 60.2128L49.4365 46.0088" stroke="#00B4FF" stroke-width="2"/>
<path d="M42.332 53.1143H56.539" stroke="#00B4FF" stroke-width="2"/>
<path d="M28.2887 12.714C31.5698 12.714 34.2297 10.0542 34.2297 6.77303C34.2297 3.49191 31.5698 0.832031 28.2887 0.832031C25.0075 0.832031 22.3477 3.49191 22.3477 6.77303C22.3477 10.0542 25.0075 12.714 28.2887 12.714Z" stroke="#00B4FF" stroke-width="2"/>
<path d="M39.354 34.5123L38.145 22.3282C37.915 20.0342 35.838 18.1562 33.532 18.1562H23.043C20.736 18.1562 18.66 20.0332 18.43 22.3282L16.647 40.0172C16.417 42.3112 19.023 44.1342 21.207 44.9202L21.77 68.1683" stroke="#00B4FF" stroke-width="2" stroke-linecap="round" stroke-linejoin="round"/>
</g>
<defs>
<clipPath id="clip0">
<rect width="80" height="80" fill="white"/>
</clipPath>
</defs>
</svg>
