<svg width="22" height="24" viewBox="0 0 22 24" fill="none" xmlns="http://www.w3.org/2000/svg">
<path d="M20.4653 2.70733L19.3933 1.58426C18.5987 0.751862 17.1988 0.751862 16.3916 1.58426L15.0043 3.03765L6.70556 11.7316C6.61727 11.824 6.55421 11.9562 6.5416 12.0883L5.99928 16.0389C5.97406 16.2371 6.03712 16.4352 6.16324 16.5674C6.27675 16.6863 6.42809 16.7524 6.57944 16.7524C6.60466 16.7524 6.62988 16.7524 6.66772 16.7524L10.4387 16.1842C10.5648 16.171 10.691 16.1049 10.7792 16.0124L19.0654 7.33175L20.4527 5.87836C20.8689 5.42913 21.0833 4.8742 21.0833 4.27963C21.0833 3.68506 20.8689 3.13013 20.4653 2.70733ZM10.073 14.9686L7.28571 15.3915L7.68929 12.4715L15.4205 4.37212L17.8042 6.86931L10.073 14.9686ZM19.6203 4.96669L18.6492 5.98406L16.2655 3.48688L17.2366 2.4695C17.5898 2.09955 18.1951 2.09955 18.5483 2.4695L19.6203 3.59258C19.7969 3.77755 19.8851 4.01538 19.8851 4.27963C19.8978 4.54389 19.7969 4.78171 19.6203 4.96669ZM19.9734 11.9562V17.1619C19.9734 19.8045 17.9303 21.9449 15.4079 21.9449H5.48219C2.95978 21.9449 0.916626 19.8045 0.916626 17.1619V6.76361C0.916626 4.12108 2.95978 1.98064 5.48219 1.98064H10.4513C10.7792 1.98064 11.0441 2.2581 11.0441 2.60163C11.0441 2.94516 10.7792 3.22262 10.4513 3.22262H5.48219C3.6156 3.22262 2.10216 4.80814 2.10216 6.76361V17.1619C2.10216 19.1174 3.6156 20.7029 5.48219 20.7029H15.4079C17.2745 20.7029 18.7879 19.1174 18.7879 17.1619V11.9562C18.7879 11.6126 19.0528 11.3352 19.3807 11.3352C19.696 11.3352 19.9734 11.6126 19.9734 11.9562Z" fill="#282830"/>
</svg>
