<svg width="24" height="24" viewBox="0 0 24 24" fill="none" xmlns="http://www.w3.org/2000/svg">
<path d="M22.3258 2.81957L21.1563 1.65009C20.2896 0.783302 18.7624 0.783302 17.8818 1.65009L16.3684 3.16354L7.3152 12.2167C7.21889 12.313 7.15009 12.4506 7.13633 12.5882L6.54472 16.702C6.5172 16.9084 6.58599 17.1148 6.72358 17.2523C6.8474 17.3762 7.01251 17.445 7.17761 17.445C7.20513 17.445 7.23265 17.445 7.27392 17.445L11.3877 16.8533C11.5253 16.8396 11.6629 16.7708 11.7592 16.6745L20.7986 7.63509L22.3121 6.12164C22.7661 5.65385 23 5.07599 23 4.45685C23 3.83771 22.7661 3.25985 22.3258 2.81957ZM10.9887 15.5876L7.94809 16.0278L8.38837 12.9872L16.8224 4.55316L19.4228 7.15353L10.9887 15.5876ZM21.404 5.1723L20.3446 6.23171L17.7442 3.63133L18.8036 2.57192C19.1889 2.18668 19.8493 2.18668 20.2345 2.57192L21.404 3.7414C21.5966 3.93402 21.6929 4.18168 21.6929 4.45685C21.7067 4.73202 21.5966 4.97968 21.404 5.1723ZM21.7892 12.4506V17.8715C21.7892 20.6232 19.5604 22.8521 16.8086 22.8521H5.98061C3.22889 22.8521 1 20.6232 1 17.8715V7.04347C1 4.29175 3.22889 2.06285 5.98061 2.06285H11.4015C11.7592 2.06285 12.0482 2.35178 12.0482 2.70951C12.0482 3.06723 11.7592 3.35616 11.4015 3.35616H5.98061C3.94434 3.35616 2.29331 5.00719 2.29331 7.04347V17.8715C2.29331 19.9078 3.94434 21.5588 5.98061 21.5588H16.8086C18.8449 21.5588 20.4959 19.9078 20.4959 17.8715V12.4506C20.4959 12.0929 20.7849 11.8039 21.1426 11.8039C21.4866 11.8039 21.7892 12.0929 21.7892 12.4506Z" fill="#282830"/>
</svg>
