<svg width="14" height="18" viewBox="0 0 14 18" fill="none" xmlns="http://www.w3.org/2000/svg">
  <path d="M2.67844 15.0169C3.03777 15.0169 3.64444 14.7829 4.81577 12.7849C5.49244 12.4879 6.22977 12.2179 6.96244 12.0109C7.49444 11.8579 8.02644 11.7409 8.5491 11.6554C9.40777 12.1639 10.4018 12.4879 11.1158 12.4879C11.8998 12.4879 11.9838 12.0604 11.9884 11.9299C11.9978 11.7499 11.9324 11.5834 11.7971 11.4484C11.5124 11.1604 10.9338 11.0164 10.0751 11.0164C9.64577 11.0164 9.17444 11.0524 8.67044 11.1289C8.1571 10.8049 7.7371 10.4179 7.4431 10.0129C7.16777 9.63489 6.9251 9.21639 6.71977 8.77539C7.27977 7.19139 7.3871 6.15189 7.04177 5.68389C6.8971 5.49939 6.69644 5.40039 6.4491 5.40039C6.17377 5.40039 5.94977 5.51739 5.80044 5.73789C5.35244 6.39489 5.70244 7.77189 6.15044 8.79339C5.94044 9.36039 5.6791 9.97239 5.39444 10.5709C5.07244 11.2459 4.75044 11.8579 4.44244 12.3934C3.5651 12.7939 2.16044 13.5409 2.02977 14.2654C1.99244 14.4769 2.05777 14.6704 2.21644 14.8234C2.34244 14.9494 2.5011 15.0169 2.67844 15.0169ZM10.0658 11.5204C11.0598 11.5204 11.3444 11.7319 11.4098 11.7949C11.4518 11.8399 11.4564 11.8759 11.4564 11.9074C11.4471 11.9209 11.3584 11.9794 11.1111 11.9794C10.7238 11.9794 10.1078 11.8399 9.44044 11.5429C9.65977 11.5249 9.86977 11.5204 10.0658 11.5204ZM6.2391 6.01689C6.29044 5.94039 6.35577 5.90889 6.4491 5.90889C6.53777 5.90889 6.5751 5.93589 6.60777 5.98089C6.76177 6.18789 6.7711 6.83139 6.4071 8.03289C6.06644 7.05189 6.05244 6.29139 6.2391 6.01689ZM5.86577 10.7824C6.07577 10.3414 6.27644 9.89589 6.4491 9.45939L6.45377 9.47289L6.4631 9.44139C6.62644 9.73839 6.80377 10.0264 6.99977 10.2919C7.23777 10.6249 7.5551 10.9399 7.92377 11.2279L7.87244 11.2369L7.89577 11.2504C7.53644 11.3224 7.17244 11.4124 6.80844 11.5159C6.27644 11.6689 5.74444 11.8489 5.2311 12.0514L5.24977 12.0244L5.2311 12.0334C5.4411 11.6464 5.65577 11.2279 5.86577 10.7824ZM2.5431 14.3554C2.5851 14.1169 3.03777 13.6984 3.9431 13.2079C3.1311 14.4364 2.7531 14.5084 2.67844 14.5084C2.6551 14.5084 2.62244 14.5039 2.5851 14.4634C2.53844 14.4229 2.53377 14.3914 2.5431 14.3554Z" fill="#333333" />
  <path d="M14 15.75V5.0625L8.75 0H2.33333C1.04533 0 0 1.008 0 2.25V15.75C0 16.992 1.04533 18 2.33333 18H11.6667C12.9547 18 14 16.992 14 15.75ZM8.75 3.375C8.75 4.3065 9.534 5.0625 10.5 5.0625H12.8333V15.75C12.8333 16.371 12.3107 16.875 11.6667 16.875H2.33333C1.68933 16.875 1.16667 16.371 1.16667 15.75V2.25C1.16667 1.629 1.68933 1.125 2.33333 1.125H8.75V3.375Z" fill="#333333" />
</svg>