<svg width="40" height="40" viewBox="0 0 40 40" fill="none" xmlns="http://www.w3.org/2000/svg">
<path d="M20 36.6663C29.2047 36.6663 36.6666 29.2044 36.6666 19.9997C36.6666 10.7949 29.2047 3.33301 20 3.33301C10.7952 3.33301 3.33331 10.7949 3.33331 19.9997C3.33331 29.2044 10.7952 36.6663 20 36.6663Z" fill="white" stroke="#00B4FF" stroke-width="3" stroke-linecap="round" stroke-linejoin="round"/>
<path d="M26.4998 22.5C26.4998 22.5 24.6667 23.3339 20.5001 23.3339C16.3334 23.3339 13.3333 23.334 13.3333 23.334" fill="white"/>
<path d="M26.4998 22.5C26.4998 22.5 24.6667 23.3339 20.5001 23.3339C16.3334 23.3339 13.3333 23.334 13.3333 23.334" stroke="#00B4FF" stroke-width="3" stroke-linecap="round" stroke-linejoin="round"/>
<path d="M15 15H15.0167" stroke="#00B4FF" stroke-width="3" stroke-linecap="round" stroke-linejoin="round"/>
<path d="M25 15H25.0167" stroke="#00B4FF" stroke-width="3" stroke-linecap="round" stroke-linejoin="round"/>
</svg>
