<svg width="80" height="80" viewBox="0 0 80 80" fill="none" xmlns="http://www.w3.org/2000/svg">
<path d="M40.5 37.7363V45.3613" stroke="#353F55" stroke-width="2" stroke-linecap="round"/>
<path d="M46.7038 49.8004L40.5028 45.3564L34.3008 49.8004" stroke="#353F55" stroke-width="2" stroke-linecap="round"/>
<path d="M29.543 36.2336V31.7516C29.543 27.8346 32.377 26.3896 36.023 26.3896L40.505 31.3256L44.664 26.3896C48.31 26.3896 51.461 27.8346 51.461 31.7516V36.2336" stroke="#353F55" stroke-width="2" stroke-linejoin="round"/>
<path fill-rule="evenodd" clip-rule="evenodd" d="M45.5697 16.8743C45.5697 19.7063 43.2867 22.0223 40.4987 22.0223C37.7117 22.0223 35.4297 19.7053 35.4297 16.8743V14.9673C35.4297 12.1363 37.7117 9.81934 40.4987 9.81934C43.2867 9.81934 45.5697 12.1363 45.5697 14.9673V16.8743Z" stroke="#353F55" stroke-width="2"/>
<path d="M48.5625 71.1809V66.6989C48.5625 62.7819 51.3965 61.3369 55.0425 61.3369L59.5265 66.2729L63.6845 61.3369C67.3325 61.3369 70.4835 62.7819 70.4835 66.6989V71.1809" stroke="#353F55" stroke-width="2" stroke-linejoin="round"/>
<path fill-rule="evenodd" clip-rule="evenodd" d="M64.5931 51.8206C64.5931 54.6516 62.3121 56.9686 59.5231 56.9686C56.7341 56.9686 54.4531 54.6516 54.4531 51.8206V49.9136C54.4531 47.0826 56.7341 44.7656 59.5231 44.7656C62.3121 44.7656 64.5931 47.0826 64.5931 49.9136V51.8206Z" stroke="#353F55" stroke-width="2"/>
<path d="M10.5195 71.1809V66.6989C10.5195 62.7819 13.3535 61.3369 16.9995 61.3369L21.4825 66.2729L25.6415 61.3369C29.2885 61.3369 32.4395 62.7819 32.4395 66.6989V71.1809" stroke="#353F55" stroke-width="2" stroke-linejoin="round"/>
<path fill-rule="evenodd" clip-rule="evenodd" d="M26.5502 51.8206C26.5502 54.6516 24.2692 56.9686 21.4802 56.9686C18.6922 56.9686 16.4102 54.6516 16.4102 51.8206V49.9136C16.4102 47.0826 18.6922 44.7656 21.4802 44.7656C24.2692 44.7656 26.5502 47.0826 26.5502 49.9136V51.8206Z" stroke="#353F55" stroke-width="2"/>
</svg>
