<svg width="39" height="38" viewBox="0 0 39 38" fill="none" xmlns="http://www.w3.org/2000/svg">
<path d="M28.2537 9.28564H30.9471C31.7515 9.28564 32.4096 9.92689 32.4096 10.7106V30.3172C32.4096 31.101 31.7515 31.7422 30.9471 31.7422H8.53867C7.7343 31.7422 7.07617 31.101 7.07617 30.3172V10.7106C7.07617 9.92689 7.7343 9.28564 8.53867 9.28564H12.5625" stroke="white" stroke-width="2" stroke-linejoin="round"/>
<path d="M21.8535 9.28564H25.3567" stroke="white" stroke-width="2" stroke-linejoin="round"/>
<path d="M15.4551 9.28564H18.9583" stroke="white" stroke-width="2" stroke-linejoin="round"/>
<path d="M9.21289 15.8423H30.2739" stroke="white" stroke-width="2" stroke-linejoin="round"/>
<path d="M12.6641 6.73291V12.2619" stroke="white" stroke-width="2" stroke-linecap="round"/>
<path d="M25.4609 6.73291V12.2619" stroke="white" stroke-width="2" stroke-linecap="round"/>
<path d="M19.0625 6.73291V12.2619" stroke="white" stroke-width="2" stroke-linecap="round"/>
<path d="M16.0584 23.5649H15.6396V23.973H16.0584V23.5649Z" fill="white" stroke="white" stroke-width="2.5"/>
<path d="M12.1658 23.5649H11.7461V23.973H12.1658V23.5649Z" fill="white" stroke="white" stroke-width="2.5"/>
<path d="M19.951 23.5649H19.5322V23.973H19.951V23.5649Z" fill="white" stroke="white" stroke-width="2.5"/>
<path d="M23.8455 23.5649H23.4268V23.973H23.8455V23.5649Z" fill="white" stroke="white" stroke-width="2.5"/>
<path d="M27.7391 23.5649H27.3193V23.973H27.7391V23.5649Z" fill="white" stroke="white" stroke-width="2.5"/>
<path d="M16.0584 19.7729H15.6396V20.1819H16.0584V19.7729Z" fill="white" stroke="white" stroke-width="2.5"/>
<path d="M19.951 19.7729H19.5322V20.1819H19.951V19.7729Z" fill="white" stroke="white" stroke-width="2.5"/>
<path d="M23.8455 19.7729H23.4268V20.1819H23.8455V19.7729Z" fill="white" stroke="white" stroke-width="2.5"/>
<path d="M27.741 19.7729H27.3213V20.1819H27.741V19.7729Z" fill="white" stroke="white" stroke-width="2.5"/>
<path d="M16.0584 27.3569H15.6396V27.7659H16.0584V27.3569Z" fill="white" stroke="white" stroke-width="2.5"/>
<path d="M12.1658 27.3569H11.7461V27.7659H12.1658V27.3569Z" fill="white" stroke="white" stroke-width="2.5"/>
<path d="M19.951 27.3569H19.5322V27.7659H19.951V27.3569Z" fill="white" stroke="white" stroke-width="2.5"/>
<path d="M23.8455 27.3569H23.4268V27.7659H23.8455V27.3569Z" fill="white" stroke="white" stroke-width="2.5"/>
</svg>
