<svg width="24" height="24" viewBox="0 0 24 24" fill="none" xmlns="http://www.w3.org/2000/svg">
<path d="M12.8694 20.5314H14.1075L14.4903 18.2817C15.0789 18.1302 15.6339 17.898 16.1436 17.595L17.9928 18.9222L19.6839 17.2311L18.3567 15.3822C18.6627 14.8686 18.8964 14.3091 19.0476 13.7145L21.2931 13.3458V10.9542L19.0476 10.5855C18.8976 9.99595 18.6666 9.44065 18.3645 8.92975L19.6842 7.06915L17.9928 5.37805L16.1319 6.69775C15.6219 6.39565 15.066 6.16465 14.4765 6.01465L14.1075 3.76855H12.8694" stroke="white" stroke-linejoin="round"/>
<path d="M12.8694 9.32812C14.4276 9.32812 15.7335 10.5917 15.7335 12.1499C15.7335 13.7084 14.4276 14.972 12.8694 14.972" stroke="white" stroke-linejoin="round"/>
<path d="M3.04102 12.1445H11.381" stroke="white" stroke-linejoin="round"/>
<path d="M10.7483 20.4779C9.95899 19.8185 2.08998 12.8435 10.8107 3.80566" stroke="white" stroke-linejoin="round"/>
<path d="M5.10938 6.8584C6.54457 7.7218 8.6932 8.6395 11.332 8.6335" stroke="white" stroke-linejoin="round"/>
<path d="M5.04248 17.4618C6.47738 16.5876 8.65178 15.6408 11.332 15.6465" stroke="white" stroke-linejoin="round"/>
<path fill-rule="evenodd" clip-rule="evenodd" d="M11.3819 20.525C6.75648 20.525 3.00708 16.7756 3.00708 12.1502C3.00708 7.52479 6.75648 3.77539 11.3819 3.77539V20.525Z" stroke="white"/>
</svg>
