<svg width="24" height="24" viewBox="0 0 24 24" fill="none" xmlns="http://www.w3.org/2000/svg">
<path d="M15.3282 12.8802H17.0601L20.1297 16.4421L20.1303 12.8802H20.9601C21.8958 12.8802 22.6611 12.1152 22.6611 11.1798V5.21486C22.6611 4.27946 21.8958 3.51416 20.9601 3.51416H12.0252C11.0895 3.51416 10.3242 4.27946 10.3242 5.21486V6.53576" stroke="#EFF0F0" stroke-linejoin="round"/>
<path fill-rule="evenodd" clip-rule="evenodd" d="M4.16957 20.7855L4.16897 17.2236H3.33857C2.40348 17.2236 1.63818 16.4583 1.63818 15.5226V9.55861C1.63818 8.62321 2.40348 7.85791 3.33857 7.85791H12.2738C13.2095 7.85791 13.9748 8.62321 13.9748 9.55861V15.5226C13.9748 16.4583 13.2095 17.2236 12.2738 17.2236H7.23887L4.16957 20.7855Z" stroke="#EFF0F0" stroke-linecap="round" stroke-linejoin="round"/>
</svg>
