<svg width="24" height="24" viewBox="0 0 24 24" fill="none" xmlns="http://www.w3.org/2000/svg">
<path fill-rule="evenodd" clip-rule="evenodd" d="M20.9708 12.1508C20.9708 17.021 17.0219 20.9696 12.1481 20.9696C7.27669 20.9696 3.32812 17.021 3.32812 12.1508C3.32812 7.27935 7.27669 3.33105 12.1481 3.33105C17.0219 3.33105 20.9708 7.27935 20.9708 12.1508Z" stroke="#EFF0F0"/>
<path d="M10.2676 9.3173C10.2676 9.3173 12.6835 9.6578 13.4377 7.8125C13.4377 7.8125 14.2459 9.3056 15.4273 9.3056" stroke="#EFF0F0" stroke-linecap="round" stroke-linejoin="round"/>
<path d="M10.3241 13.8193C10.3241 13.8193 10.3241 15.1666 10.3241 15.2209C10.3241 15.2752 10.4252 15.8197 6.87109 16.7242" stroke="#EFF0F0" stroke-linecap="round" stroke-linejoin="round"/>
<path d="M13.9753 13.8193C13.9738 14.263 13.9753 15.1666 13.9753 15.2209C13.9753 15.2752 13.8745 15.8197 17.4283 16.7242" stroke="#EFF0F0" stroke-linecap="round" stroke-linejoin="round"/>
<path d="M13.2511 14.0391C13.7326 13.9236 13.9789 13.7079 13.9789 13.7079C14.7946 13.1289 15.2998 11.313 15.4522 10.0398C15.6766 8.16542 15.4174 5.92322 12.1498 5.84912C8.88279 5.92322 8.62359 8.16542 8.84859 10.0398C9.00069 11.3121 9.50619 13.1289 10.3213 13.7079C10.3213 13.7079 10.5676 13.9236 11.0491 14.0391" stroke="#EFF0F0" stroke-linecap="round" stroke-linejoin="round"/>
</svg>
