<svg width="24" height="24" viewBox="0 0 24 24" fill="none" xmlns="http://www.w3.org/2000/svg">
  <path fill-rule="evenodd" clip-rule="evenodd" d="M11.4749 8.58146C11.7749 8.29055 12.2399 8.29055 12.5399 8.58146L15.5399 11.4906C15.8399 11.7815 15.8399 12.2324 15.5399 12.5233C15.2399 12.8142 14.7749 12.8142 14.4749 12.5233L12.7499 10.8506V16.3633C12.7499 16.7706 12.4199 17.0906 11.9999 17.0906C11.5799 17.0906 11.2499 16.7706 11.2499 16.3633V10.8506L9.52486 12.5087C9.22486 12.7996 8.75986 12.7996 8.45986 12.5087C8.15986 12.2178 8.15986 11.7669 8.45986 11.476L11.4749 8.58146Z" fill="#282830"/>
  <path d="M6.615 5.94909C8.115 4.69818 10.02 4 12 4C16.035 4 19.38 6.90909 19.755 10.6618C22.14 10.9818 24 12.9309 24 15.3018C24 17.92 21.75 20 19.035 20H5.67C2.565 20 0 17.6291 0 14.6473C0 12.0873 1.905 9.96364 4.41 9.42545C4.635 8.16 5.46 6.90909 6.615 5.94909ZM7.59 7.05455C6.45 8 5.865 9.14909 5.865 10.0364V10.6909L5.19 10.7636C3.09 10.9818 1.5 12.6545 1.5 14.6473C1.5 16.7709 3.345 18.5455 5.67 18.5455H19.035C20.97 18.5455 22.5 17.0764 22.5 15.3018C22.5 13.5273 20.97 12.0582 19.035 12.0582H18.285V11.3309C18.285 8.10182 15.495 5.45455 12 5.45455C10.38 5.45455 8.82 6.02182 7.59 7.05455Z" fill="#282830"/>
</svg>
