<svg width="24" height="24" viewBox="0 0 24 24" fill="none" xmlns="http://www.w3.org/2000/svg">
<path fill-rule="evenodd" clip-rule="evenodd" d="M20.9708 12.1508C20.9708 17.021 17.0219 20.9696 12.1481 20.9696C7.27669 20.9696 3.32812 17.021 3.32812 12.1508C3.32812 7.27935 7.27669 3.33105 12.1481 3.33105C17.0219 3.33105 20.9708 7.27935 20.9708 12.1508Z" stroke="#EFF0F0"/>
<path d="M10.2681 9.3173C10.2681 9.3173 12.684 9.6578 13.4382 7.8125C13.4382 7.8125 14.2464 9.3056 15.4278 9.3056" stroke="#EFF0F0" stroke-linecap="round" stroke-linejoin="round"/>
<path d="M10.3236 13.8193C10.3236 13.8193 10.3236 15.1666 10.3236 15.2209C10.3236 15.2752 10.4247 15.8197 6.87061 16.7242" stroke="#EFF0F0" stroke-linecap="round" stroke-linejoin="round"/>
<path d="M13.9753 13.8193C13.9738 14.263 13.9753 15.1666 13.9753 15.2209C13.9753 15.2752 13.8745 15.8197 17.4283 16.7242" stroke="#EFF0F0" stroke-linecap="round" stroke-linejoin="round"/>
<path d="M13.2508 14.0391C13.7323 13.9236 13.9786 13.7079 13.9786 13.7079C14.7943 13.1289 15.2995 11.313 15.4519 10.0398C15.6763 8.16542 15.4171 5.92322 12.1495 5.84912C8.88254 5.92322 8.62334 8.16542 8.84834 10.0398C9.00044 11.3121 9.50594 13.1289 10.321 13.7079C10.321 13.7079 10.5673 13.9236 11.0488 14.0391" stroke="#EFF0F0" stroke-linecap="round" stroke-linejoin="round"/>
</svg>
