<svg width="41" height="40" viewBox="0 0 41 40" fill="none" xmlns="http://www.w3.org/2000/svg">
<rect x="0.457031" width="40" height="40" fill="#E7E7E7"/>
<path d="M28.384 32.6412C28.1724 31.406 27.8666 29.3977 27.9866 27.4409C27.9866 27.4409 28.699 24.2326 30.1254 22.1829C30.1254 22.1829 34.6711 14.4288 27.8967 9.4373C27.8967 9.4373 21.9029 4.99326 14.6525 9.10641C14.6525 9.10641 10.6088 10.8566 11.4638 16.4539C11.4638 16.4539 11.6369 18.02 11.1417 18.7508L8.46374 21.8997C8.46374 21.8997 8.10734 22.835 9.17694 22.9241L10.8091 23.2608C10.8091 23.2608 11.4914 24.5919 11.56 25.6163C11.6286 26.6399 11.3893 27.9032 11.3893 27.9032C11.3893 27.9032 10.8091 29.44 11.7202 30.1139C11.8992 30.1586 12.5681 30.9179 17.3363 29.8926C17.3363 29.8926 17.7972 30.1105 18.0888 32.6028" stroke="#0A0A0A" stroke-miterlimit="10" stroke-linecap="round" stroke-linejoin="round"/>
<path d="M11.7642 25.6855L13.8126 25.718" stroke="black" stroke-miterlimit="10" stroke-linecap="round" stroke-linejoin="round"/>
<path d="M16.715 15.6306L16.542 14.6701C16.2721 13.1714 16.9369 11.6586 18.2235 10.844V10.844C19.0154 10.3426 19.9664 10.1565 20.8888 10.3225L21.4985 10.4322C22.0233 10.5266 22.5309 10.6992 23.0046 10.9441L23.5069 11.204C24.2069 11.566 24.8158 12.0817 25.2881 12.7125L25.7058 13.2703C26.094 13.7887 26.3085 14.4165 26.3186 15.064V15.064C26.3316 15.8897 26.0117 16.6859 25.431 17.2731L25.1458 17.5615C24.8303 17.8805 24.4639 18.1447 24.0615 18.3432L23.3081 18.7151C22.7234 19.0036 22.1908 19.3876 21.7323 19.8512L21.668 19.9161C21.431 20.1557 21.219 20.4188 21.0353 20.7013V20.7013C20.4956 21.5307 20.2157 22.5022 20.2312 23.4916L20.2343 23.689" stroke="black"/>
<circle cx="19.8685" cy="25.2943" r="0.588235" fill="black"/>
</svg>
